# xmcd CD Database Entry
#
# Track frame offsets:
# 150
# 16052
# 29833
# 42434
# 60585
# 77612
# 94039
# 109001
# 125878
# 144040
# 157303
# 175003
# 189853
# 203054
# 228710
# 239511
# 258635
# 270224
#
# Disc length: 3832 seconds
#
# Revision: 1
# Processed by: cddbd v1.5PL3 Copyright (c) Steve Scherf et al.
# Submitted via: tcd 2.0b
#
DISCID=f30ef612
DTITLE=Kent DuChaine and Leadbessie - Playing The Blues Live at " les 
DTITLE=loufiats "
DYEAR=1997
DGENRE=Blues
TTITLE0=Aberdeen Mississippi Blues
TTITLE1=The Little Red Rooster
TTITLE2=Preaching Blues
TTITLE3=Long Distance Call
TTITLE4=Walking Blues
TTITLE5=Trouble In Mind
TTITLE6=You Don`t Want Me
TTITLE7=Traveling Riverside Blues
TTITLE8=I`ll Be True To You
TTITLE9=Boogie Man
TTITLE10=Sweet Home Chicago
TTITLE11=She`s Irresistible
TTITLE12=Cajun Queen
TTITLE13=St. James Infermary
TTITLE14=Shak Your Moneymaker
TTITLE15=Fever
TTITLE16=The Seventh Son
TTITLE17=Edgemont Station
EXTD=Lyon - France 1997
EXTT0=
EXTT1=
EXTT2=
EXTT3=
EXTT4=
EXTT5=
EXTT6=
EXTT7=
EXTT8=
EXTT9=
EXTT10=
EXTT11=
EXTT12=
EXTT13=
EXTT14=
EXTT15=
EXTT16=
EXTT17=
PLAYORDER=
